<svg width="84" height="71" viewBox="0 0 84 71" fill="none" xmlns="http://www.w3.org/2000/svg">
<path fill-rule="evenodd" clip-rule="evenodd" d="M81.433 28.5208C82.7326 27.2222 84.0588 44.7972 83.019 51.5956C81.9791 58.394 76.9857 62.852 72.394 65.7158C67.802 68.5771 61.8159 70.4839 56.5008 70.7964C51.1856 71.1089 47.516 70.1713 46.3196 69.7376C45.3549 69.3887 43.3471 69.1223 42.6214 68.3978C41.8958 67.671 43.185 62.932 44.1006 58.9246C44.7729 55.9833 43.8845 53.5 43.6562 50.4206C43.4198 47.2322 44.5086 45.1897 47.1872 42.9074C49.7513 40.7221 60.5217 41.8099 64.9671 38.4277C72.9439 32.3537 77.1938 33.5893 81.433 28.5208Z" fill="#809EC4"/>
<path fill-rule="evenodd" clip-rule="evenodd" d="M40.17 41.8243C41.1396 42.7935 41.285 51.7797 38.8639 55.1014C36.0118 59.0166 43.1428 67.2493 38.5247 69.2942C38.2836 69.4008 38.0595 69.5025 37.8609 69.5897C36.8207 70.0501 32.0279 71.4698 24.5128 70.4498C16.9975 69.4274 8.8629 64.1772 5.68635 61.2916C2.50955 58.4085 2.75741 53.1922 0.927697 47.5906C-0.665062 42.7111 0.167175 38.7474 0.681781 35.3603C7.38038 31.9126 11.5251 37.8316 18.7005 36.5281C25.8672 35.2295 38.4869 40.1405 40.17 41.8243Z" fill="#F1CB7E"/>
<path fill-rule="evenodd" clip-rule="evenodd" d="M43.2509 38.4882C42.038 37.2744 40.3869 32.218 41.9171 28.5208C43.7786 24.0241 44.0305 19.2778 43.1285 14.2456C42.4492 10.4563 42.9449 4.9178 44.339 3.52226C46.6615 1.20121 49.9502 0.559165 51.5185 0.559165C53.2765 0.559165 60.6966 -0.254898 65.6098 6.88997C69.7446 12.9034 78.945 17.3589 79.9786 24.9762C75.9984 27.0962 71.3919 34.1611 63.0443 35.06C54.5596 35.9758 46.0919 41.3278 43.2509 38.4882Z" fill="#F5B9A3"/>
<path fill-rule="evenodd" clip-rule="evenodd" d="M1.55035 31.1446C2.69368 27.2706 5.12013 21.8507 7.25536 18.2093C9.82766 13.8215 16.5764 6.98679 21.401 3.69177C26.2258 0.39917 32.4517 -0.489987 35.4947 0.556667C37.0737 1.1018 38.1404 1.69052 39.3211 2.87043C40.8239 4.375 40.2277 19.5394 38.3471 26.1924C37.3302 29.7879 41.3432 34.2458 39.0982 36.5451C37.9485 37.7225 32.5319 34.5051 28.5788 34.8927C25.8248 35.1641 22.9685 33.9236 20.09 32.6952C16.417 31.1277 14.6859 32.2809 11.0226 32.3948C8.49754 32.4747 3.74494 30.6092 1.55035 31.1446Z" fill="#F0A552"/>
</svg>
