<svg width="100%" height="100%" viewBox="0 0 401 401" version="1.1" xmlns="http://www.w3.org/2000/svg" xmlns:xlink="http://www.w3.org/1999/xlink" xml:space="preserve" xmlns:serif="http://www.serif.com/" style="fill-rule:evenodd;clip-rule:evenodd;stroke-linejoin:round;stroke-miterlimit:2;">
    <g transform="matrix(1,0,0,1,-1459.98,-947.513)">
        <g transform="matrix(0.439239,0,0,0.78125,1360.47,848)">
            <g transform="matrix(8.93889,0,0,5.02567,-1708.25,-7776.73)">
                <circle cx="267.511" cy="1623.81" r="51.062" style="fill:rgb(39,58,84);"/>
            </g>
        </g>
        <g transform="matrix(0.439239,0,0,0.78125,1360.47,848)">
            <g transform="matrix(0.683009,0,0,0.680226,221.139,123.817)">
                <g transform="matrix(2.27667,0,0,1.28,36.7621,-1992.01)">
                    <path d="M434.023,1835.64C452.691,1806.54 462.22,1883.41 446.512,1925.32C436.551,1951.9 421.611,1971.78 402.658,1983.6C383.706,1995.41 365.984,1999.79 344.046,2001.08C322.108,2002.37 295.869,2000.29 286.76,1991.18C282.116,1986.53 291.683,1969.82 295.462,1953.29C298.237,1941.15 291.973,1929.69 291.031,1916.98C290.055,1903.82 294.073,1885.74 306.787,1878.72C320.379,1871.2 353.656,1884.94 372.004,1870.97C404.928,1845.91 419.833,1857.75 434.023,1835.64Z" style="fill:rgb(128,158,196);"/>
                </g>
                <g transform="matrix(2.27667,0,0,1.28,36.7621,-1992.01)">
                    <path d="M276.642,1881.5C286.403,1891.26 284.157,1918.59 271.251,1936.3C258.346,1954.01 286.401,1982.21 269.851,1994.88C255.281,2006.04 243.036,2003.86 212.018,1999.65C180.999,1995.43 153.101,1982.24 134.313,1961.85C122.309,1948.83 126.828,1928.42 114.672,1905.3C104.818,1886.55 105.274,1863.53 113.657,1854.82C122.703,1845.42 158.412,1865.02 188.028,1859.64C217.608,1854.28 265.707,1870.56 276.642,1881.5Z" style="fill:rgb(241,203,126);"/>
                </g>
                <g transform="matrix(2.27667,0,0,1.28,36.7621,-1992.01)">
                    <path d="M292.851,1860.74C287.845,1855.74 281.03,1834.86 287.346,1819.6C295.029,1801.04 292.576,1788.44 288.853,1767.67C286.049,1752.03 288.095,1729.17 293.849,1723.41C303.435,1713.83 317.009,1711.18 323.482,1711.18C330.738,1711.18 361.364,1707.82 381.643,1737.31C398.709,1762.13 436.683,1780.52 440.949,1811.96C443.105,1827.85 386.323,1851.68 351.869,1855.4C316.849,1859.17 304.577,1872.47 292.851,1860.74Z" style="fill:rgb(245,185,163);"/>
                </g>
                <g transform="matrix(2.27667,0,0,1.28,36.7621,-1992.01)">
                    <path d="M117.329,1834.71C117.957,1824.02 131.976,1799.06 140.789,1784.03C151.406,1765.92 179.261,1737.71 199.174,1724.11C237.72,1697.8 265.458,1706.31 273.138,1720.72C277.264,1728.47 276.88,1789.52 269.118,1816.98C264.921,1831.82 281.484,1850.22 272.218,1859.71C267.473,1864.57 245.116,1851.29 228.8,1852.89C217.433,1854.01 205.644,1848.89 193.763,1843.82C178.603,1837.35 171.458,1842.11 156.338,1842.58C145.916,1842.91 116.95,1841.15 117.329,1834.71Z" style="fill:rgb(240,165,82);"/>
                </g>
            </g>
        </g>
    </g>
</svg>

