<svg width="175" height="53" viewBox="0 0 175 53" fill="none" xmlns="http://www.w3.org/2000/svg">
<path d="M16.3199 28.7729H8.95989V7.47159H0.392639V0.8125H24.8872V7.47159H16.3199V28.7729Z" fill="#273A54"/>
<path d="M47.9868 22.3864V28.7729H28.2043V0.8125H47.7142V7.199H35.5643V11.21H46.5849V17.5965H35.5643V22.3864H47.9868Z" fill="#273A54"/>
<path d="M59.5608 28.7729H52.2008V0.8125H63.6497C67.4401 0.8125 70.3607 1.63028 72.4117 3.26585C74.4886 4.87545 75.527 7.17303 75.527 10.1586C75.527 11.9499 75.0078 13.5595 73.9694 14.9874C72.9569 16.3893 71.503 17.4927 69.6078 18.2975L76.4616 28.7729H67.6997L61.9752 19.4657H59.5608V28.7729ZM59.5608 6.88746V13.3908H63.3382C64.9737 13.3908 66.1809 13.1312 66.9598 12.6119C67.7386 12.0927 68.1281 11.2749 68.1281 10.1586C68.1281 9.04225 67.7386 8.22447 66.9598 7.70524C66.1809 7.16005 64.9737 6.88746 63.3382 6.88746H59.5608Z" fill="#273A54"/>
<path d="M85.4576 17.7912H97.3349L99.2431 23.5936H83.5105L85.4576 17.7912ZM97.9969 28.7729L91.4546 8.91244L84.7177 28.7729H77.2797L87.6383 0.8125H95.6993L105.941 28.7729H97.9969Z" fill="#273A54"/>
<path d="M119.806 20.2446H116.263V28.7729H108.902V0.8125H119.806C122.247 0.8125 124.337 1.17596 126.076 1.90288C127.841 2.60383 129.191 3.66825 130.126 5.09613C131.061 6.49804 131.528 8.25043 131.528 10.3533C131.528 12.4562 131.061 14.2475 130.126 15.7273C129.191 17.1811 127.841 18.2975 126.076 19.0763C124.337 19.8552 122.247 20.2446 119.806 20.2446ZM119.767 7.00429H116.263V14.0528H119.767C121.221 14.0528 122.325 13.7153 123.077 13.0403C123.83 12.3653 124.207 11.4956 124.207 10.4312C124.207 9.34081 123.83 8.49706 123.077 7.89995C122.325 7.30284 121.221 7.00429 119.767 7.00429Z" fill="#273A54"/>
<path d="M142.617 28.7729H135.257V0.8125H142.617V28.7729Z" fill="#273A54"/>
<path d="M153.758 17.7912H165.636L167.544 23.5936H151.811L153.758 17.7912ZM166.298 28.7729L159.755 8.91244L153.018 28.7729H145.58L155.939 0.8125H164L174.242 28.7729H166.298Z" fill="#273A54"/>
<path d="M17.4525 50.6013V51.8901H8.90631V37.653H17.3137V38.9419H10.3935V43.8991H16.7189V45.188H10.3935V50.6013H17.4525Z" fill="#273A54"/>
<path d="M29.9112 51.8901L21.603 39.7549V51.8901H20.2149V37.653H21.8607L30.0897 49.6296V37.653H31.4976V51.8901H29.9112Z" fill="#273A54"/>
<path d="M45.4061 51.8901L40.2506 39.8144V51.8901H38.8626V37.653H40.786L46.0604 50.0659L51.3746 37.653H53.2781V51.8901H51.9099V39.8144L46.7148 51.8901H45.4061Z" fill="#273A54"/>
<path d="M62.849 52.1876C61.8179 52.1876 60.8661 51.9959 59.9936 51.6125C59.1211 51.2292 58.361 50.7004 57.7133 50.0262C57.0655 49.352 56.5632 48.5655 56.2063 47.6666C55.8494 46.7545 55.6709 45.7828 55.6709 44.7517C55.6709 43.7206 55.8494 42.7556 56.2063 41.8567C56.5632 40.9578 57.0655 40.1713 57.7133 39.4971C58.361 38.8229 59.1211 38.3008 59.9936 37.9306C60.8661 37.5473 61.8179 37.3556 62.849 37.3556C63.8801 37.3556 64.8318 37.5473 65.7043 37.9306C66.5768 38.3008 67.3369 38.8229 67.9846 39.4971C68.6456 40.1713 69.1545 40.9578 69.5114 41.8567C69.8684 42.7556 70.0468 43.7206 70.0468 44.7517C70.0468 45.7828 69.8684 46.7545 69.5114 47.6666C69.1545 48.5655 68.6456 49.352 67.9846 50.0262C67.3369 50.7004 66.5768 51.2292 65.7043 51.6125C64.8318 51.9959 63.8801 52.1876 62.849 52.1876ZM62.849 50.859C63.695 50.859 64.4617 50.707 65.1491 50.403C65.8365 50.0857 66.4314 49.6495 66.9337 49.0943C67.436 48.5258 67.8194 47.8715 68.0838 47.1312C68.3614 46.3909 68.5002 45.5978 68.5002 44.7517C68.5002 43.9057 68.3614 43.1126 68.0838 42.3723C67.8194 41.632 67.436 40.9909 66.9337 40.4489C66.4314 39.8937 65.8365 39.4641 65.1491 39.16C64.4617 38.8428 63.695 38.6841 62.849 38.6841C62.0161 38.6841 61.2494 38.8428 60.5488 39.16C59.8614 39.4641 59.2665 39.8937 58.7642 40.4489C58.2619 40.9909 57.8719 41.632 57.5943 42.3723C57.3299 43.1126 57.1977 43.9057 57.1977 44.7517C57.1977 45.5978 57.3299 46.3909 57.5943 47.1312C57.8719 47.8715 58.2619 48.5258 58.7642 49.0943C59.2665 49.6495 59.8614 50.0857 60.5488 50.403C61.2494 50.707 62.0161 50.859 62.849 50.859Z" fill="#273A54"/>
<path d="M82.6146 37.653L77.2806 51.8901H75.6547L70.3405 37.653H71.8872L76.4875 50.1848L81.1274 37.653H82.6146Z" fill="#273A54"/>
<path d="M86.1265 51.8901H84.6393V37.653H86.1265V51.8901Z" fill="#273A54"/>
<path d="M95.8883 51.8901L90.7328 39.8144V51.8901H89.3448V37.653H91.2682L96.5426 50.0659L101.857 37.653H103.76V51.8901H102.392V39.8144L97.197 51.8901H95.8883Z" fill="#273A54"/>
<path d="M108.453 51.8901H106.966V37.653H108.453V51.8901Z" fill="#273A54"/>
<path d="M120.218 50.6013V51.8901H111.672V37.653H120.079V38.9419H113.159V43.8991H119.484V45.188H113.159V50.6013H120.218Z" fill="#273A54"/>
<path d="M132.676 51.8901L124.368 39.7549V51.8901H122.98V37.653H124.626L132.855 49.6296V37.653H134.263V51.8901H132.676Z" fill="#273A54"/>
<path d="M142.52 51.8901H141.053V38.9816H136.274V37.653H147.299V38.9816H142.52V51.8901Z" fill="#273A54"/>
<path d="M154.867 52.1876C153.836 52.1876 152.884 51.9959 152.012 51.6125C151.139 51.2292 150.379 50.7004 149.731 50.0262C149.084 49.352 148.581 48.5655 148.224 47.6666C147.868 46.7545 147.689 45.7828 147.689 44.7517C147.689 43.7206 147.868 42.7556 148.224 41.8567C148.581 40.9578 149.084 40.1713 149.731 39.4971C150.379 38.8229 151.139 38.3008 152.012 37.9306C152.884 37.5473 153.836 37.3556 154.867 37.3556C155.898 37.3556 156.85 37.5473 157.722 37.9306C158.595 38.3008 159.355 38.8229 160.003 39.4971C160.664 40.1713 161.173 40.9578 161.53 41.8567C161.887 42.7556 162.065 43.7206 162.065 44.7517C162.065 45.7828 161.887 46.7545 161.53 47.6666C161.173 48.5655 160.664 49.352 160.003 50.0262C159.355 50.7004 158.595 51.2292 157.722 51.6125C156.85 51.9959 155.898 52.1876 154.867 52.1876ZM154.867 50.859C155.713 50.859 156.48 50.707 157.167 50.403C157.855 50.0857 158.45 49.6495 158.952 49.0943C159.454 48.5258 159.838 47.8715 160.102 47.1312C160.38 46.3909 160.518 45.5978 160.518 44.7517C160.518 43.9057 160.38 43.1126 160.102 42.3723C159.838 41.632 159.454 40.9909 158.952 40.4489C158.45 39.8937 157.855 39.4641 157.167 39.16C156.48 38.8428 155.713 38.6841 154.867 38.6841C154.034 38.6841 153.268 38.8428 152.567 39.16C151.88 39.4641 151.285 39.8937 150.782 40.4489C150.28 40.9909 149.89 41.632 149.612 42.3723C149.348 43.1126 149.216 43.9057 149.216 44.7517C149.216 45.5978 149.348 46.3909 149.612 47.1312C149.89 47.8715 150.28 48.5258 150.782 49.0943C151.285 49.6495 151.88 50.0857 152.567 50.403C153.268 50.707 154.034 50.859 154.867 50.859Z" fill="#273A54"/>
</svg>
